<?xml version="1.0" encoding="UTF-8" standalone="no"?><!DOCTYPE svg PUBLIC "-//W3C//DTD SVG 1.1//EN" "http://www.w3.org/Graphics/SVG/1.1/DTD/svg11.dtd"><svg width="100%" height="100%" viewBox="0 0 103 24" version="1.1" xmlns="http://www.w3.org/2000/svg" xmlns:xlink="http://www.w3.org/1999/xlink" xml:space="preserve" xmlns:serif="http://www.serif.com/" style="fill-rule:evenodd;clip-rule:evenodd;stroke-linejoin:round;stroke-miterlimit:2;"><g><path d="M83.706,12.008l2.904,-2.959l2.913,2.968l-2.904,2.958l-2.913,-2.967Z" style="fill:#1a1a1a;"/><path d="M90.129,18.551l-2.895,-2.95l2.903,-2.958l2.896,2.95l-2.904,2.958Z" style="fill:#1a1a1a;"/><path d="M90.148,5.445l2.914,2.968l-2.924,2.979l-2.914,-2.969l2.924,-2.978Z" style="fill:#1a1a1a;"/><path d="M93.648,14.967l-2.896,-2.95l2.925,-2.979l2.895,2.95l-2.924,2.979Z" style="fill:#1a1a1a;"/><path d="M90.139,0.24c-6.377,0 -11.544,5.264 -11.544,11.757c-0,6.496 5.167,11.763 11.544,11.763c6.373,0 11.544,-5.267 11.544,-11.763c-0,-6.493 -5.171,-11.757 -11.544,-11.757m7.355,12.061l-3.232,3.291l3.021,3.077c0.169,0.172 0.169,0.453 0,0.626c-0.086,0.086 -0.196,0.129 -0.308,0.129c-0.111,0 -0.223,-0.043 -0.306,-0.129l-3.022,-3.077l-3.211,3.271c-0.085,0.086 -0.197,0.13 -0.307,0.13c-0.111,-0 -0.223,-0.044 -0.308,-0.13l-3.202,-3.262l-3.011,3.068c-0.085,0.086 -0.196,0.129 -0.307,0.129c-0.111,0 -0.223,-0.043 -0.307,-0.129c-0.17,-0.173 -0.17,-0.454 -0,-0.626l3.011,-3.068l-3.22,-3.282c-0.17,-0.172 -0.17,-0.453 -0,-0.625l3.211,-3.271l-3.02,-3.076c-0.17,-0.173 -0.17,-0.454 -0,-0.626c0.169,-0.173 0.445,-0.173 0.614,-0l3.02,3.077l3.231,-3.291c0.169,-0.173 0.445,-0.173 0.614,-0l3.222,3.28l3.01,-3.066c0.17,-0.173 0.444,-0.173 0.615,-0c0.169,0.172 0.169,0.453 -0,0.626l-3.011,3.066l3.203,3.262c0.081,0.083 0.127,0.196 0.127,0.314c-0,0.117 -0.046,0.229 -0.127,0.312" style="fill:#1a1a1a;fill-rule:nonzero;"/><path d="M21.492,3.248l-9.489,0l0,2.249l3.305,0c0.062,0 0.129,0.026 0.167,0.072c0.056,0.047 0.082,0.111 0.082,0.173l-0.007,15.009l2.401,0l-0,-15.009c-0,-0.062 0.026,-0.126 0.076,-0.173c0.045,-0.046 0.103,-0.072 0.172,-0.072l3.293,0l-0,-2.249Z" style="fill:#1a1a1a;fill-rule:nonzero;"/><path d="M42.548,16.924c0,0.121 -0.086,0.226 -0.197,0.248c-0.122,0.021 -0.238,-0.044 -0.278,-0.16l-4.95,-13.764l-2.745,0l-0,17.504l2.41,-0l-0.2,-12.365c0,-0.122 0.081,-0.233 0.2,-0.251c0.019,-0.003 0.028,-0.003 0.044,-0.003c0.11,-0 0.193,0.065 0.231,0.163l4.577,12.456l3.113,-0l0,-17.504l-2.414,0l0.209,13.676Z" style="fill:#1a1a1a;fill-rule:nonzero;"/><path d="M4.66,3.248c-1.285,0.018 -2.157,0.339 -2.725,0.963c-0.572,0.624 -0.876,1.603 -0.898,3.02l0,1.563c0,0.629 0.07,1.147 0.194,1.496c0.12,0.354 0.28,0.594 0.555,0.811c0.255,0.222 0.761,0.543 1.471,0.938l3.278,1.861c0.441,0.265 0.771,0.51 0.988,0.72c0.381,0.333 0.471,0.834 0.471,1.361l-0,0.568c-0,0.579 -0.124,1.104 -0.471,1.494c-0.27,0.302 -0.627,0.447 -1.019,0.524c-0.036,0.021 -0.086,0.033 -0.124,0.033l-2.654,-0c-0.062,-0 -0.126,-0.025 -0.174,-0.073c-0.045,-0.044 -0.065,-0.112 -0.065,-0.182l0,-1.235l-2.45,-0l0,3.641l5.742,0c1.3,-0.017 2.192,-0.332 2.765,-0.948c0.575,-0.606 0.877,-1.566 0.891,-2.957l0,-1.697c0,-0.893 -0.103,-1.503 -0.202,-1.659c-0.126,-0.251 -0.302,-0.452 -0.563,-0.664c-0.246,-0.201 -0.747,-0.532 -1.441,-0.909l-3.28,-1.817c-0.443,-0.281 -0.776,-0.491 -1.025,-0.709c-0.346,-0.35 -0.437,-0.831 -0.437,-1.367l0,-0.522c-0.004,-0.025 -0.004,-0.048 -0.004,-0.075c0,-0.576 0.147,-1.095 0.497,-1.455c0.37,-0.403 0.894,-0.559 1.479,-0.554l2.291,0c0.06,0 0.129,0.028 0.172,0.075c0.046,0.043 0.072,0.109 0.072,0.172l-0,1.232l2.441,0l0,-3.649l-5.775,0Z" style="fill:#1a1a1a;fill-rule:nonzero;"/><path d="M49.053,4.211c-0.569,0.625 -0.872,1.603 -0.895,3.015l0,9.528c0.023,1.425 0.326,2.411 0.895,3.03c0.576,0.627 1.454,0.95 2.729,0.968l5.775,-0l-0,-3.654l-2.441,0l-0,1.247c-0,0.07 -0.017,0.139 -0.071,0.181c-0.041,0.048 -0.106,0.073 -0.171,0.073l-2.298,-0c-0.576,-0 -1.105,-0.163 -1.468,-0.557c-0.363,-0.39 -0.496,-0.932 -0.496,-1.533l0,-9.014c0,-0.599 0.133,-1.141 0.487,-1.515c0.363,-0.411 0.893,-0.562 1.477,-0.562l2.285,-0c0.061,-0 0.127,0.021 0.178,0.074c0.043,0.052 0.066,0.11 0.066,0.173l0,1.231l2.452,0l-0,-3.647l-5.768,-0c-1.282,0.017 -2.16,0.338 -2.736,0.962" style="fill:#1a1a1a;fill-rule:nonzero;"/><path d="M63.448,5.569c0.044,-0.046 0.103,-0.071 0.174,-0.071l5.617,0l1.123,-2.25l-9.401,0l0,17.503l9.399,0l-1.12,-2.238l-5.618,0c-0.071,0 -0.13,-0.03 -0.174,-0.076c-0.051,-0.048 -0.071,-0.106 -0.071,-0.171l-0,-4.564c-0,-0.068 0.025,-0.132 0.071,-0.177c0.044,-0.049 0.103,-0.072 0.174,-0.072l4.433,-0l-0,-2.261l-4.433,-0c-0.071,-0 -0.13,-0.021 -0.174,-0.072c-0.051,-0.044 -0.071,-0.113 -0.071,-0.174l-0,-5.204c-0,-0.062 0.025,-0.127 0.071,-0.173" style="fill:#1a1a1a;fill-rule:nonzero;"/><path d="M24.846,3.248l-3.574,17.503l3.838,0l1.115,-2.238l-2.013,0c-0.077,0 -0.147,-0.03 -0.189,-0.091c-0.042,-0.061 -0.065,-0.138 -0.048,-0.21l2.425,-11.189c0.009,-0.05 0.032,-0.096 0.062,-0.126c0.044,-0.046 0.111,-0.073 0.171,-0.073c0.069,0 0.133,0.027 0.174,0.073c0.045,0.037 0.066,0.082 0.075,0.132l2.706,13.722l2.402,0l-3.58,-17.503l-3.564,0Z" style="fill:#1a1a1a;fill-rule:nonzero;"/></g></svg>